<svg width="305" height="65" viewBox="0 0 305 65" fill="none" xmlns="http://www.w3.org/2000/svg">
<path d="M15.2013 49.1585C13.8925 49.1585 12.8938 48.8059 12.2049 48.1007C11.5161 47.3955 11.1717 46.3881 11.1717 45.0785V30.4711L12.8249 34.9541L0.632849 18.08C0.150678 17.3748 -0.0559663 16.6192 0.0129153 15.8133C0.0817968 14.9738 0.426205 14.2518 1.04614 13.6474C1.66607 13.0429 2.54431 12.7407 3.68086 12.7407C4.50744 12.7407 5.24791 12.9422 5.90229 13.3452C6.5911 13.7481 7.24548 14.3862 7.86541 15.2592L16.1312 26.8948H14.478L22.7438 15.2592C23.3982 14.3526 24.0354 13.7146 24.6553 13.3452C25.3097 12.9422 26.0674 12.7407 26.9284 12.7407C28.0305 12.7407 28.8915 13.0262 29.5114 13.597C30.1314 14.1343 30.4586 14.8227 30.493 15.6622C30.5274 16.4681 30.2347 17.3076 29.6148 18.1807L17.5777 34.9541L19.1792 30.4711V45.0785C19.1792 47.7985 17.8532 49.1585 15.2013 49.1585Z" fill="#FF7020"/>
<path d="M42.2665 49.2592C39.5457 49.2592 37.1693 48.7388 35.1373 47.6978C33.1397 46.6568 31.5899 45.1625 30.4877 43.2148C29.3856 41.2671 28.8346 38.9669 28.8346 36.3141C28.8346 34.3328 29.1446 32.5531 29.7645 30.9748C30.3844 29.3965 31.2799 28.0533 32.4509 26.9452C33.6563 25.8034 35.0856 24.9471 36.7388 24.3763C38.3919 23.7718 40.2345 23.4696 42.2665 23.4696C44.9873 23.4696 47.3465 23.9901 49.3441 25.0311C51.3761 26.0721 52.9431 27.5496 54.0452 29.4637C55.1818 31.3778 55.7501 33.6612 55.7501 36.3141C55.7501 38.3289 55.4229 40.1254 54.7685 41.7037C54.1486 43.282 53.2531 44.642 52.0821 45.7837C50.9111 46.9254 49.4818 47.7985 47.7942 48.4029C46.1411 48.9738 44.2985 49.2592 42.2665 49.2592ZM42.2665 43.5674C43.403 43.5674 44.3846 43.2987 45.2112 42.7615C46.0378 42.2242 46.6921 41.435 47.1743 40.3941C47.6565 39.3195 47.8976 37.9595 47.8976 36.3141C47.8976 33.8627 47.3809 32.0662 46.3477 30.9244C45.3145 29.7491 43.9541 29.1615 42.2665 29.1615C41.1644 29.1615 40.1828 29.4133 39.3218 29.917C38.4952 30.4207 37.8409 31.2099 37.3587 32.2844C36.911 33.3254 36.6871 34.6686 36.6871 36.3141C36.6871 38.7654 37.2037 40.5955 38.2369 41.8044C39.2701 42.9797 40.6133 43.5674 42.2665 43.5674Z" fill="#FF7020"/>
<path d="M69.8467 49.2592C67.7114 49.2592 65.9377 48.8731 64.5256 48.1007C63.1135 47.3284 62.0631 46.1699 61.3743 44.6252C60.7199 43.0469 60.3927 41.0992 60.3927 38.7822V27.3985C60.3927 26.1225 60.7199 25.1654 61.3743 24.5274C62.0631 23.8894 63.0274 23.5704 64.2673 23.5704C65.5072 23.5704 66.4715 23.8894 67.1603 24.5274C67.8491 25.1654 68.1935 26.1225 68.1935 27.3985V38.9837C68.1935 40.4612 68.5035 41.5694 69.1234 42.3081C69.7434 43.0133 70.7249 43.3659 72.0681 43.3659C73.5491 43.3659 74.7545 42.8622 75.6844 41.8548C76.6487 40.8138 77.1309 39.4538 77.1309 37.7748V27.3985C77.1309 26.1225 77.4581 25.1654 78.1125 24.5274C78.8013 23.8894 79.7656 23.5704 81.0055 23.5704C82.2798 23.5704 83.2441 23.8894 83.8985 24.5274C84.5873 25.1654 84.9317 26.1225 84.9317 27.3985V45.28C84.9317 47.8657 83.6747 49.1585 81.1605 49.1585C79.9206 49.1585 78.9735 48.8227 78.3191 48.1511C77.6647 47.4795 77.3376 46.5225 77.3376 45.28V41.9052L78.1125 43.8696C77.3548 45.5822 76.2699 46.9086 74.8578 47.8489C73.4457 48.7891 71.7754 49.2592 69.8467 49.2592Z" fill="#FF7020"/>
<path d="M94.9976 49.1585C93.6888 49.1585 92.6901 48.8227 92.0013 48.1511C91.3124 47.4795 90.968 46.5225 90.968 45.28V27.3985C90.968 26.156 91.2952 25.2158 91.9496 24.5778C92.6384 23.9062 93.5855 23.5704 94.791 23.5704C96.0308 23.5704 96.9779 23.9062 97.6323 24.5778C98.2867 25.2158 98.6139 26.156 98.6139 27.3985V30.0178H98.0973C98.5106 28.0029 99.4232 26.4415 100.835 25.3333C102.247 24.2252 104.073 23.6039 106.311 23.4696C107.172 23.4025 107.827 23.6207 108.275 24.1244C108.757 24.5945 109.015 25.3837 109.049 26.4918C109.118 27.5328 108.894 28.3555 108.378 28.96C107.896 29.5644 107.069 29.9338 105.898 30.0681L104.71 30.1689C102.747 30.3368 101.283 30.8908 100.319 31.8311C99.3888 32.7713 98.9238 34.1313 98.9238 35.9111V45.28C98.9238 46.5225 98.5794 47.4795 97.8906 48.1511C97.2363 48.8227 96.2719 49.1585 94.9976 49.1585Z" fill="#FF7020"/>
<path d="M116.649 49.1585C115.478 49.1585 114.583 48.8395 113.963 48.2015C113.343 47.5634 113.033 46.6736 113.033 45.5318V16.3674C113.033 15.2257 113.36 14.3358 114.015 13.6978C114.703 13.0597 115.633 12.7407 116.804 12.7407C117.837 12.7407 118.647 12.9422 119.232 13.3452C119.852 13.7146 120.421 14.3694 120.937 15.3096L132.871 36.5659H131.114L143.048 15.3096C143.565 14.3694 144.116 13.7146 144.701 13.3452C145.321 12.9422 146.131 12.7407 147.129 12.7407C148.3 12.7407 149.196 13.0597 149.816 13.6978C150.47 14.3358 150.797 15.2257 150.797 16.3674V45.5318C150.797 46.6736 150.487 47.5634 149.867 48.2015C149.247 48.8395 148.352 49.1585 147.181 49.1585C146.01 49.1585 145.097 48.8395 144.443 48.2015C143.823 47.5634 143.513 46.6736 143.513 45.5318V25.1318H144.65L135.041 41.9052C134.627 42.5432 134.18 43.0301 133.697 43.3659C133.25 43.6681 132.647 43.8192 131.889 43.8192C131.132 43.8192 130.512 43.6513 130.03 43.3155C129.547 42.9797 129.117 42.5096 128.738 41.9052L119.026 25.0815H120.266V45.5318C120.266 46.6736 119.956 47.5634 119.336 48.2015C118.75 48.8395 117.855 49.1585 116.649 49.1585Z" fill="#FF7020"/>
<path d="M170.686 49.2592C167.689 49.2592 165.106 48.7388 162.936 47.6978C160.801 46.6232 159.148 45.1289 157.977 43.2148C156.84 41.2671 156.272 38.9837 156.272 36.3644C156.272 33.8123 156.823 31.5792 157.925 29.6652C159.027 27.7175 160.56 26.2064 162.523 25.1318C164.521 24.0237 166.777 23.4696 169.291 23.4696C171.116 23.4696 172.769 23.7718 174.25 24.3763C175.731 24.9471 177.006 25.7867 178.073 26.8948C179.141 27.9694 179.95 29.2958 180.501 30.8741C181.052 32.4187 181.328 34.1481 181.328 36.0622C181.328 36.7002 181.121 37.1871 180.708 37.5229C180.295 37.8252 179.692 37.9763 178.9 37.9763H162.678V34.0474H175.697L174.87 34.7526C174.87 33.3758 174.664 32.2341 174.25 31.3274C173.837 30.3871 173.234 29.682 172.442 29.2118C171.684 28.7417 170.737 28.5066 169.601 28.5066C168.326 28.5066 167.242 28.7921 166.346 29.3629C165.451 29.9338 164.762 30.7565 164.28 31.8311C163.797 32.9057 163.556 34.1985 163.556 35.7096V36.1126C163.556 38.6647 164.159 40.5452 165.365 41.7541C166.604 42.9629 168.43 43.5674 170.841 43.5674C171.667 43.5674 172.614 43.4666 173.682 43.2652C174.75 43.0637 175.748 42.7447 176.678 42.3081C177.47 41.9387 178.176 41.8212 178.796 41.9555C179.416 42.0563 179.899 42.3249 180.243 42.7615C180.587 43.198 180.777 43.7017 180.811 44.2726C180.88 44.8434 180.76 45.4143 180.45 45.9852C180.14 46.5225 179.623 46.9758 178.9 47.3452C177.729 47.9832 176.403 48.4533 174.922 48.7555C173.475 49.0913 172.063 49.2592 170.686 49.2592Z" fill="#FF7020"/>
<path d="M194.441 49.2592C192.581 49.2592 190.911 48.9067 189.43 48.2015C187.949 47.4963 186.795 46.5392 185.968 45.3304C185.142 44.1215 184.729 42.7615 184.729 41.2504C184.729 39.437 185.211 38.0099 186.175 36.9689C187.139 35.8943 188.706 35.1387 190.876 34.7022C193.046 34.2321 195.922 33.997 199.504 33.997H202.242V37.9259H199.555C197.799 37.9259 196.37 38.0266 195.267 38.2281C194.2 38.396 193.425 38.6983 192.943 39.1348C192.495 39.5713 192.271 40.1758 192.271 40.9481C192.271 41.8884 192.598 42.6607 193.253 43.2652C193.941 43.8696 194.923 44.1718 196.197 44.1718C197.196 44.1718 198.074 43.9536 198.832 43.517C199.624 43.0469 200.244 42.4257 200.692 41.6533C201.14 40.8474 201.363 39.9407 201.363 38.9333V33.1407C201.363 31.6632 201.019 30.6222 200.33 30.0178C199.641 29.3797 198.47 29.0607 196.817 29.0607C195.887 29.0607 194.871 29.1783 193.769 29.4133C192.702 29.6148 191.513 29.9674 190.205 30.4711C189.447 30.8069 188.775 30.8908 188.19 30.7229C187.604 30.5215 187.157 30.1857 186.847 29.7155C186.537 29.2118 186.382 28.6746 186.382 28.1037C186.382 27.4992 186.554 26.9284 186.898 26.3911C187.243 25.8202 187.811 25.4005 188.603 25.1318C190.222 24.4938 191.737 24.0573 193.149 23.8222C194.596 23.5871 195.922 23.4696 197.127 23.4696C199.779 23.4696 201.949 23.8558 203.637 24.6281C205.359 25.3669 206.65 26.5254 207.511 28.1037C208.372 29.6484 208.803 31.6464 208.803 34.0978V45.28C208.803 46.5225 208.493 47.4795 207.873 48.1511C207.253 48.8227 206.357 49.1585 205.186 49.1585C204.015 49.1585 203.103 48.8227 202.448 48.1511C201.828 47.4795 201.518 46.5225 201.518 45.28V43.4163L201.88 43.7185C201.673 44.8602 201.226 45.8508 200.537 46.6904C199.883 47.4963 199.039 48.1343 198.005 48.6044C196.972 49.041 195.784 49.2592 194.441 49.2592Z" fill="#FF7020"/>
<path d="M223.766 49.2592C220.701 49.2592 218.41 48.4365 216.895 46.7911C215.38 45.1121 214.622 42.6271 214.622 39.3363V16.6192C214.622 15.3432 214.949 14.3862 215.603 13.7481C216.292 13.0765 217.274 12.7407 218.548 12.7407C219.788 12.7407 220.735 13.0765 221.389 13.7481C222.078 14.3862 222.423 15.3432 222.423 16.6192V39.0341C222.423 40.4108 222.715 41.435 223.301 42.1066C223.921 42.7447 224.73 43.0637 225.729 43.0637C226.004 43.0637 226.263 43.0469 226.504 43.0133C226.745 42.9797 227.003 42.9629 227.279 42.9629C227.83 42.8958 228.209 43.0637 228.415 43.4667C228.656 43.836 228.777 44.5916 228.777 45.7333C228.777 46.7407 228.57 47.5131 228.157 48.0504C227.744 48.5541 227.107 48.8899 226.246 49.0578C225.901 49.0913 225.505 49.1249 225.057 49.1585C224.61 49.2257 224.179 49.2592 223.766 49.2592Z" fill="#FF7020"/>
<path d="M290.121 12.326L295.697 12.1498V31.8809H288.971L290.121 12.326Z" fill="white"/>
<ellipse cx="272.952" cy="46.3269" rx="6.63755" ry="8.4562" fill="white"/>
<path d="M260.774 18.7562C260.774 23.4264 257.537 22.6319 253.871 22.6319C250.205 22.6319 247.765 21.3987 247.765 19.7251C247.765 15.0549 250.471 14.44 254.137 14.44C257.803 14.44 260.774 14.0859 260.774 18.7562Z" fill="white"/>
<path d="M244.467 3.58261C244.14 3.7647 243.709 4.15489 243.487 4.45403L243.095 5.01331V11.9847V18.9691L243.434 19.8406C244.663 22.9751 247.303 25.0561 250.478 25.3813L251.327 25.4723L251.393 41.21L251.458 56.9477L251.746 57.416C251.915 57.6761 252.294 58.0533 252.595 58.2614C253.078 58.5995 253.248 58.6385 254.137 58.6385C255.012 58.6385 255.195 58.5995 255.653 58.2874C255.927 58.0923 256.306 57.7151 256.489 57.442L256.816 56.9607L256.881 41.223L256.946 25.4723L257.796 25.3813C261.05 25.0561 263.898 22.728 264.892 19.6195C265.179 18.722 265.179 18.5789 265.179 11.8677V5.02631L264.826 4.51907C264.251 3.71267 263.65 3.37451 262.644 3.32248C261.572 3.27045 260.801 3.62163 260.213 4.45403L259.821 5.01331L259.756 8.2779L259.691 11.5555H258.319H256.946L256.881 8.29091C256.816 5.07834 256.816 5.02631 256.489 4.55808C255.94 3.73868 255.274 3.37451 254.281 3.32248C253.209 3.27045 252.438 3.62163 251.85 4.45403L251.458 5.01331L251.393 8.2779L251.327 11.5555H249.955H248.583L248.518 8.29091L248.452 5.02631L248.1 4.51907C247.525 3.71267 246.924 3.37451 245.917 3.32248C245.199 3.28346 244.95 3.33549 244.467 3.58261ZM259.625 17.4734C259.625 18.2668 258.985 19.1382 258.057 19.6325C257.639 19.8536 257.273 19.8796 254.137 19.8796C250.844 19.8796 250.648 19.8666 250.151 19.5934C249.263 19.1252 248.648 18.2538 248.648 17.4734V17.0832H254.137H259.625V17.4734Z" fill="#FF7020"/>
<path d="M271.556 3.58261C271.23 3.7647 270.798 4.15489 270.576 4.45403L270.184 5.01331L270.119 19.5154L270.054 34.0175L268.956 34.3427C266.212 35.123 264.16 36.7618 263.01 39.064C262.004 41.106 261.834 41.9514 261.834 44.9168C261.834 47.0889 261.873 47.6092 262.108 48.5586C263.389 53.5921 266.225 57.0258 270.184 58.3394C270.955 58.5865 271.373 58.6385 272.863 58.6385C274.353 58.6385 274.771 58.5865 275.542 58.3394C279.501 57.0258 282.337 53.5921 283.618 48.5586C283.853 47.6092 283.892 47.0889 283.892 44.9168C283.892 42.7318 283.853 42.2375 283.605 41.3401C282.625 37.7373 280.286 35.3442 276.77 34.3427L275.673 34.0175L275.607 19.5284L275.542 5.02632L275.189 4.51907C274.614 3.71267 274.013 3.37451 273.007 3.32248C272.288 3.28346 272.04 3.33549 271.556 3.58261ZM275.437 39.7143C276.901 40.2085 277.855 41.3401 278.221 42.9789C278.469 44.1104 278.325 46.9458 277.959 48.1034C277.28 50.2364 275.986 52.0313 274.588 52.7337C273.712 53.1759 272.027 53.1889 271.164 52.7467C269.675 51.9793 268.472 50.3145 267.741 48.0384C267.479 47.1799 267.44 46.8028 267.44 44.9168C267.44 42.8228 267.453 42.7578 267.819 41.9514C268.472 40.5467 269.805 39.6363 271.556 39.4021C271.556 39.4021 274.627 39.4542 275.437 39.7143Z" fill="#FF7020"/>
<path d="M296.751 3.53058C295.079 4.40201 292.491 6.76917 290.897 8.86319C286.925 14.1308 284.612 21.5704 284.076 30.87C283.88 34.2776 283.971 34.7849 284.873 35.6823C285.749 36.5537 285.984 36.5928 290.949 36.5928H295.21V46.6467V56.7136L295.51 57.2599C295.667 57.572 296.059 58.0012 296.373 58.2354C296.882 58.5995 297.013 58.6385 297.941 58.6385C298.829 58.6385 299.012 58.5995 299.47 58.2874C299.744 58.0923 300.123 57.7151 300.306 57.442L300.633 56.9607V31V5.02631L300.28 4.51907C299.705 3.69966 299.104 3.37451 298.097 3.32248C297.444 3.29647 297.117 3.33549 296.751 3.53058ZM295.21 21.7655V31H292.439H289.682L289.773 29.6604C290.009 26.0836 290.884 21.7655 292.021 18.5789C292.779 16.4719 294.817 12.531 295.144 12.531C295.183 12.531 295.21 16.68 295.21 21.7655Z" fill="#FF7020"/>
</svg>
